<?xml version="1.0" standalone="no"?>
<!DOCTYPE svg PUBLIC "-//W3C//DTD SVG 20010904//EN"
 "http://www.w3.org/TR/2001/REC-SVG-20010904/DTD/svg10.dtd">
<svg version="1.0" xmlns="http://www.w3.org/2000/svg"
 width="550.000000pt" height="550.000000pt" viewBox="0 0 550.000000 550.000000"
 preserveAspectRatio="xMidYMid meet">
<metadata>
Created by potrace 1.14, written by Peter Selinger 2001-2017
</metadata>
<g transform="translate(0.000000,550.000000) scale(0.100000,-0.100000)"
fill="#000000" stroke="none">
<path d="M0 2750 l0 -2750 2750 0 2750 0 0 2750 0 2750 -2750 0 -2750 0 0
-2750z m2820 0 l548 -1685 -380 -3 c-210 -1 -383 0 -386 2 -2 3 -183 611 -401
1352 -218 741 -401 1349 -406 1351 -6 2 -180 -578 -405 -1352 l-393 -1355
-374 0 c-205 0 -373 4 -373 9 0 4 234 716 520 1582 287 866 537 1622 556 1682
l36 107 455 -2 455 -3 548 -1685z m907 20 c265 -916 484 -1675 488 -1688 l5
-22 -317 2 -317 3 -542 1675 c-299 921 -543 1681 -543 1688 -1 10 77 12 371
10 l373 -3 482 -1665z m1491 1658 c-3 -7 -213 -660 -469 -1451 -323 -1003
-466 -1433 -471 -1420 -17 37 -328 1136 -328 1156 0 17 495 1635 521 1705 l9
22 371 0 c293 0 370 -3 367 -12z"/>
</g>
</svg>
